<mxfile host="app.diagrams.net" modified="2024-04-09T21:51:24.998Z" agent="Mozilla/5.0 (Macintosh; Intel Mac OS X 10_15_7) AppleWebKit/537.36 (KHTML, like Gecko) Chrome/123.0.0.0 Safari/537.36" etag="IhscT9hixu4ILjD_tTsK" version="24.2.3" type="device">
  <diagram name="Page-1" id="quK-_K29_yYZpArmBf9Z">
    <mxGraphModel dx="1224" dy="2884" grid="1" gridSize="10" guides="1" tooltips="1" connect="1" arrows="1" fold="1" page="1" pageScale="1" pageWidth="850" pageHeight="1100" math="0" shadow="0">
      <root>
        <mxCell id="0" />
        <mxCell id="1" parent="0" />
        <mxCell id="_537F4ddGnLc1pz3b4_u-7" value="" style="rounded=0;whiteSpace=wrap;html=1;" parent="1" vertex="1">
          <mxGeometry y="130" width="850" height="440" as="geometry" />
        </mxCell>
        <mxCell id="_537F4ddGnLc1pz3b4_u-10" value="" style="rounded=0;whiteSpace=wrap;html=1;" parent="1" vertex="1">
          <mxGeometry y="190" width="850" height="60" as="geometry" />
        </mxCell>
        <mxCell id="_537F4ddGnLc1pz3b4_u-12" value="Profile" style="rounded=1;whiteSpace=wrap;html=1;" parent="1" vertex="1">
          <mxGeometry x="60" y="190" width="120" height="60" as="geometry" />
        </mxCell>
        <mxCell id="_537F4ddGnLc1pz3b4_u-13" value="List Transactions" style="rounded=1;whiteSpace=wrap;html=1;" parent="1" vertex="1">
          <mxGeometry x="190" y="190" width="120" height="60" as="geometry" />
        </mxCell>
        <mxCell id="_537F4ddGnLc1pz3b4_u-14" value="Request Txn Review" style="rounded=1;whiteSpace=wrap;html=1;" parent="1" vertex="1">
          <mxGeometry x="320" y="190" width="120" height="60" as="geometry" />
        </mxCell>
        <mxCell id="_537F4ddGnLc1pz3b4_u-15" value="Authorize Transaction" style="rounded=1;whiteSpace=wrap;html=1;" parent="1" vertex="1">
          <mxGeometry x="450" y="190" width="120" height="60" as="geometry" />
        </mxCell>
        <mxCell id="_537F4ddGnLc1pz3b4_u-16" value="Approved Reviews" style="rounded=1;whiteSpace=wrap;html=1;" parent="1" vertex="1">
          <mxGeometry x="580" y="190" width="120" height="60" as="geometry" />
        </mxCell>
        <mxCell id="_537F4ddGnLc1pz3b4_u-17" value="Logout" style="rounded=1;whiteSpace=wrap;html=1;" parent="1" vertex="1">
          <mxGeometry x="710" y="190" width="120" height="60" as="geometry" />
        </mxCell>
        <mxCell id="_537F4ddGnLc1pz3b4_u-19" value="" style="rounded=0;whiteSpace=wrap;html=1;" parent="1" vertex="1">
          <mxGeometry y="580" width="850" height="440" as="geometry" />
        </mxCell>
        <mxCell id="_537F4ddGnLc1pz3b4_u-20" value="" style="rounded=0;whiteSpace=wrap;html=1;" parent="1" vertex="1">
          <mxGeometry y="640" width="850" height="60" as="geometry" />
        </mxCell>
        <mxCell id="_537F4ddGnLc1pz3b4_u-22" value="Profile" style="rounded=1;whiteSpace=wrap;html=1;" parent="1" vertex="1">
          <mxGeometry x="60" y="640" width="120" height="60" as="geometry" />
        </mxCell>
        <mxCell id="_537F4ddGnLc1pz3b4_u-23" value="List Users" style="rounded=1;whiteSpace=wrap;html=1;" parent="1" vertex="1">
          <mxGeometry x="190" y="640" width="120" height="60" as="geometry" />
        </mxCell>
        <mxCell id="_537F4ddGnLc1pz3b4_u-24" value="Request Account Review" style="rounded=1;whiteSpace=wrap;html=1;" parent="1" vertex="1">
          <mxGeometry x="320" y="640" width="120" height="60" as="geometry" />
        </mxCell>
        <mxCell id="_537F4ddGnLc1pz3b4_u-25" value="Authorize Deletion Request" style="rounded=1;whiteSpace=wrap;html=1;" parent="1" vertex="1">
          <mxGeometry x="450" y="640" width="120" height="60" as="geometry" />
        </mxCell>
        <mxCell id="_537F4ddGnLc1pz3b4_u-26" value="Approved Reviews" style="rounded=1;whiteSpace=wrap;html=1;" parent="1" vertex="1">
          <mxGeometry x="580" y="640" width="120" height="60" as="geometry" />
        </mxCell>
        <mxCell id="_537F4ddGnLc1pz3b4_u-27" value="Logout" style="rounded=1;whiteSpace=wrap;html=1;" parent="1" vertex="1">
          <mxGeometry x="710" y="640" width="120" height="60" as="geometry" />
        </mxCell>
        <mxCell id="_537F4ddGnLc1pz3b4_u-29" value="System Admin" style="rounded=1;whiteSpace=wrap;html=1;" parent="1" vertex="1">
          <mxGeometry x="365" y="580" width="120" height="60" as="geometry" />
        </mxCell>
        <mxCell id="_537F4ddGnLc1pz3b4_u-30" value="System Manager" style="rounded=1;whiteSpace=wrap;html=1;" parent="1" vertex="1">
          <mxGeometry x="365" y="130" width="120" height="60" as="geometry" />
        </mxCell>
        <mxCell id="_537F4ddGnLc1pz3b4_u-31" value="" style="rounded=0;whiteSpace=wrap;html=1;" parent="1" vertex="1">
          <mxGeometry y="-340" width="850" height="440" as="geometry" />
        </mxCell>
        <mxCell id="_537F4ddGnLc1pz3b4_u-32" value="" style="rounded=0;whiteSpace=wrap;html=1;" parent="1" vertex="1">
          <mxGeometry y="-280" width="850" height="60" as="geometry" />
        </mxCell>
        <mxCell id="_537F4ddGnLc1pz3b4_u-33" value="Profile" style="rounded=1;whiteSpace=wrap;html=1;" parent="1" vertex="1">
          <mxGeometry x="110" y="-280" width="120" height="60" as="geometry" />
        </mxCell>
        <mxCell id="_537F4ddGnLc1pz3b4_u-37" value="Approved Reviews" style="rounded=1;whiteSpace=wrap;html=1;" parent="1" vertex="1">
          <mxGeometry x="430" y="-280" width="120" height="60" as="geometry" />
        </mxCell>
        <mxCell id="_537F4ddGnLc1pz3b4_u-39" value="Regular Employee" style="rounded=1;whiteSpace=wrap;html=1;" parent="1" vertex="1">
          <mxGeometry x="365" y="-340" width="120" height="60" as="geometry" />
        </mxCell>
        <mxCell id="_537F4ddGnLc1pz3b4_u-40" value="Logout" style="rounded=1;whiteSpace=wrap;html=1;" parent="1" vertex="1">
          <mxGeometry x="590" y="-280" width="120" height="60" as="geometry" />
        </mxCell>
        <mxCell id="_537F4ddGnLc1pz3b4_u-41" value="Request Txn Review" style="rounded=1;whiteSpace=wrap;html=1;" parent="1" vertex="1">
          <mxGeometry x="270" y="-280" width="120" height="60" as="geometry" />
        </mxCell>
        <mxCell id="_537F4ddGnLc1pz3b4_u-49" value="" style="rounded=0;whiteSpace=wrap;html=1;" parent="1" vertex="1">
          <mxGeometry y="-1260" width="850" height="440" as="geometry" />
        </mxCell>
        <mxCell id="_537F4ddGnLc1pz3b4_u-50" value="" style="rounded=0;whiteSpace=wrap;html=1;" parent="1" vertex="1">
          <mxGeometry y="-1200" width="850" height="60" as="geometry" />
        </mxCell>
        <mxCell id="_537F4ddGnLc1pz3b4_u-51" value="Profile" style="rounded=1;whiteSpace=wrap;html=1;" parent="1" vertex="1">
          <mxGeometry x="20" y="-1200" width="120" height="60" as="geometry" />
        </mxCell>
        <mxCell id="_537F4ddGnLc1pz3b4_u-53" value="Customer" style="rounded=1;whiteSpace=wrap;html=1;" parent="1" vertex="1">
          <mxGeometry x="365" y="-1260" width="120" height="60" as="geometry" />
        </mxCell>
        <mxCell id="_537F4ddGnLc1pz3b4_u-54" value="Logout" style="rounded=1;whiteSpace=wrap;html=1;" parent="1" vertex="1">
          <mxGeometry x="720" y="-1200" width="120" height="60" as="geometry" />
        </mxCell>
        <mxCell id="_537F4ddGnLc1pz3b4_u-56" value="List Transactions" style="rounded=1;whiteSpace=wrap;html=1;" parent="1" vertex="1">
          <mxGeometry x="160" y="-1200" width="120" height="60" as="geometry" />
        </mxCell>
        <mxCell id="_537F4ddGnLc1pz3b4_u-57" value="New Transcaction" style="rounded=1;whiteSpace=wrap;html=1;" parent="1" vertex="1">
          <mxGeometry x="305" y="-1200" width="120" height="60" as="geometry" />
        </mxCell>
        <mxCell id="_537F4ddGnLc1pz3b4_u-59" value="Payment Requests" style="rounded=1;whiteSpace=wrap;html=1;" parent="1" vertex="1">
          <mxGeometry x="440" y="-1200" width="120" height="60" as="geometry" />
        </mxCell>
        <mxCell id="_537F4ddGnLc1pz3b4_u-60" value="Review Requests" style="rounded=1;whiteSpace=wrap;html=1;" parent="1" vertex="1">
          <mxGeometry x="580" y="-1200" width="120" height="60" as="geometry" />
        </mxCell>
        <mxCell id="_537F4ddGnLc1pz3b4_u-70" value="" style="rounded=0;whiteSpace=wrap;html=1;" parent="1" vertex="1">
          <mxGeometry y="-800" width="850" height="440" as="geometry" />
        </mxCell>
        <mxCell id="_537F4ddGnLc1pz3b4_u-71" value="" style="rounded=0;whiteSpace=wrap;html=1;" parent="1" vertex="1">
          <mxGeometry y="-740" width="850" height="60" as="geometry" />
        </mxCell>
        <mxCell id="_537F4ddGnLc1pz3b4_u-72" value="Profile" style="rounded=1;whiteSpace=wrap;html=1;" parent="1" vertex="1">
          <mxGeometry x="30" y="-740" width="120" height="60" as="geometry" />
        </mxCell>
        <mxCell id="_537F4ddGnLc1pz3b4_u-73" value="Merchant" style="rounded=1;whiteSpace=wrap;html=1;" parent="1" vertex="1">
          <mxGeometry x="365" y="-800" width="120" height="60" as="geometry" />
        </mxCell>
        <mxCell id="_537F4ddGnLc1pz3b4_u-74" value="Logout" style="rounded=1;whiteSpace=wrap;html=1;" parent="1" vertex="1">
          <mxGeometry x="700" y="-740" width="120" height="60" as="geometry" />
        </mxCell>
        <mxCell id="_537F4ddGnLc1pz3b4_u-75" value="List Transactions" style="rounded=1;whiteSpace=wrap;html=1;" parent="1" vertex="1">
          <mxGeometry x="190" y="-740" width="120" height="60" as="geometry" />
        </mxCell>
        <mxCell id="_537F4ddGnLc1pz3b4_u-76" value="Request Payment" style="rounded=1;whiteSpace=wrap;html=1;" parent="1" vertex="1">
          <mxGeometry x="360" y="-740" width="120" height="60" as="geometry" />
        </mxCell>
        <mxCell id="_537F4ddGnLc1pz3b4_u-78" value="Review Requests" style="rounded=1;whiteSpace=wrap;html=1;" parent="1" vertex="1">
          <mxGeometry x="540" y="-740" width="120" height="60" as="geometry" />
        </mxCell>
        <mxCell id="pthbUAL1pBv5at-cIfeE-1" value="" style="rounded=0;whiteSpace=wrap;html=1;" vertex="1" parent="1">
          <mxGeometry y="1090" width="850" height="370" as="geometry" />
        </mxCell>
        <mxCell id="pthbUAL1pBv5at-cIfeE-2" value="" style="rounded=1;whiteSpace=wrap;html=1;" vertex="1" parent="1">
          <mxGeometry x="360" y="1160" width="120" height="60" as="geometry" />
        </mxCell>
        <mxCell id="pthbUAL1pBv5at-cIfeE-3" value="" style="rounded=1;whiteSpace=wrap;html=1;" vertex="1" parent="1">
          <mxGeometry x="360" y="1230" width="120" height="60" as="geometry" />
        </mxCell>
        <mxCell id="pthbUAL1pBv5at-cIfeE-4" value="" style="rounded=1;whiteSpace=wrap;html=1;" vertex="1" parent="1">
          <mxGeometry x="360" y="1380" width="120" height="60" as="geometry" />
        </mxCell>
        <mxCell id="pthbUAL1pBv5at-cIfeE-5" value="" style="rounded=1;whiteSpace=wrap;html=1;" vertex="1" parent="1">
          <mxGeometry x="365" y="1310" width="120" height="60" as="geometry" />
        </mxCell>
      </root>
    </mxGraphModel>
  </diagram>
</mxfile>
